<?xml version="1.0" standalone="no"?><!DOCTYPE svg PUBLIC "-//W3C//DTD SVG 1.1//EN" "http://www.w3.org/Graphics/SVG/1.1/DTD/svg11.dtd"><svg t="1605779276921" class="icon" viewBox="0 0 1096 1024" version="1.1" xmlns="http://www.w3.org/2000/svg" p-id="2443" xmlns:xlink="http://www.w3.org/1999/xlink" width="34.25" height="32"><defs><style type="text/css"></style></defs><path d="M62 52v960" p-id="2444"></path><path d="M92 52v960" p-id="2445"></path><path d="M122 52v960" p-id="2446"></path><path d="M152 52v960" p-id="2447"></path><path d="M182 52v960" p-id="2448"></path><path d="M212 52v960" p-id="2449"></path><path d="M242 52v960" p-id="2450"></path><path d="M272 52v960" p-id="2451"></path><path d="M302 52v960" p-id="2452"></path><path d="M332 52v960" p-id="2453"></path><path d="M362 52v960" p-id="2454"></path><path d="M392 52v960" p-id="2455"></path><path d="M422 52v960" p-id="2456"></path><path d="M452 52v960" p-id="2457"></path><path d="M482 52v960" p-id="2458"></path><path d="M512 52v960" p-id="2459"></path><path d="M542 52v960" p-id="2460"></path><path d="M572 52v960" p-id="2461"></path><path d="M602 52v960" p-id="2462"></path><path d="M632 52v960" p-id="2463"></path><path d="M662 52v960" p-id="2464"></path><path d="M692 52v960" p-id="2465"></path><path d="M722 52v960" p-id="2466"></path><path d="M752 52v960" p-id="2467"></path><path d="M782 52v960" p-id="2468"></path><path d="M812 52v960" p-id="2469"></path><path d="M842 52v960" p-id="2470"></path><path d="M872 52v960" p-id="2471"></path><path d="M902 52v960" p-id="2472"></path><path d="M932 52v960" p-id="2473"></path><path d="M962 52v960M32 82h960" p-id="2474"></path><path d="M32 112h960" p-id="2475"></path><path d="M32 142h960" p-id="2476"></path><path d="M32 172h960" p-id="2477"></path><path d="M32 202h960" p-id="2478"></path><path d="M32 232h960" p-id="2479"></path><path d="M32 262h960" p-id="2480"></path><path d="M32 292h960" p-id="2481"></path><path d="M32 322h960" p-id="2482"></path><path d="M32 352h960" p-id="2483"></path><path d="M32 382h960" p-id="2484"></path><path d="M32 412h960" p-id="2485"></path><path d="M32 442h960" p-id="2486"></path><path d="M32 472h960" p-id="2487"></path><path d="M32 502h960" p-id="2488"></path><path d="M32 532h960" p-id="2489"></path><path d="M32 562h960" p-id="2490"></path><path d="M32 592h960" p-id="2491"></path><path d="M32 622h960" p-id="2492"></path><path d="M32 652h960" p-id="2493"></path><path d="M32 682h960" p-id="2494"></path><path d="M32 712h960" p-id="2495"></path><path d="M32 742h960" p-id="2496"></path><path d="M32 772h960" p-id="2497"></path><path d="M32 802h960" p-id="2498"></path><path d="M32 832h960" p-id="2499"></path><path d="M32 862h960" p-id="2500"></path><path d="M32 892h960" p-id="2501"></path><path d="M32 922h960" p-id="2502"></path><path d="M32 952h960" p-id="2503"></path><path d="M32 982h960" p-id="2504"></path><path d="M296.01125 726.683125h215.565v-91.45125h69.133125v91.45125h215.563125v69.133125H580.709375v39.736875h-69.133125v-39.736875H296.01125v-69.133125zM819.134375 163.823125v445.824375H208.915625V163.823125h610.21875z m-67.5 67.498125h-474.675v310.280625h474.675V231.32125z m308.101875-83.285625v477.3975l-219.375-158.405625v-160.040625l219.375-158.4075z m-67.498125 132.2775l-83.829375 60.421875v91.45125l83.829375 60.42375V279.7675zM188.22875 204.105625v285.241875H32.54375V204.105625h155.685z m-67.5 67.5H100.04375v149.698125h20.685v-149.69625z" fill="#3187FD" p-id="2505"></path></svg>