<?xml version="1.0" standalone="no"?><!DOCTYPE svg PUBLIC "-//W3C//DTD SVG 1.1//EN" "http://www.w3.org/Graphics/SVG/1.1/DTD/svg11.dtd"><svg t="1605836240524" class="icon" viewBox="0 0 1024 1024" version="1.1" xmlns="http://www.w3.org/2000/svg" p-id="3769" xmlns:xlink="http://www.w3.org/1999/xlink" width="32" height="32"><defs><style type="text/css"></style></defs><path d="M1018.24 843.264c0 0.032 0.016 0.064 0.016 0.096 0 17.328-14.096 31.376-31.504 31.376H752.08c17.6-3.856 30.768-19.44 30.768-38.144v-0.096h0.016s0-142.576-104.496-194.4c-44.688-22.16-47.648-17.936-69.84-23.184l0.624-61.76s-24.384-18.576-31.968-76.928c-15.28 4.4-20.32-17.856-21.2-32.016-0.848-13.696-8.848-56.464 9.76-52.624-3.808-28.544-6.56-54.304-5.2-67.952 4.672-47.888 50.96-97.92 122.24-101.568 83.856 3.648 117.072 53.664 121.744 101.52 1.328 13.664-1.648 39.424-5.456 67.936 18.64-3.792 10.544 38.896 9.632 52.592-0.832 14.192-6 36.352-21.216 31.984-7.632 58.304-32 76.752-32 76.752l0.56 61.68s15.44 8.784 80.576 35.68c65.152 26.912 44.72 6.784 97.776 33.072 83.872 41.616 83.872 155.984 83.872 155.984h-0.032zM545.664 632.32c71.632 29.616 49.152 7.456 107.488 36.384 92.192 45.712 92.192 171.44 92.192 171.44h-0.016c0 0.048 0.016 0.064 0.016 0.096 0 19.056-15.52 34.496-34.64 34.496H41.376c-19.12 0-34.624-15.44-34.624-34.496v-0.096h-0.016s0-125.712 92.192-171.456c58.336-28.928 35.872-5.456 107.488-35.04 71.6-29.552 88.576-39.872 88.576-39.872l0.672-68.128s-26.816-20.448-35.136-84.56c-16.768 4.832-22.336-19.632-23.328-35.216-0.912-15.04-9.696-62.064 10.768-57.824-4.192-31.392-7.2-59.696-5.728-74.672 5.152-52.656 56-107.664 134.368-111.664 92.176 4 128.672 58.976 133.792 111.584 1.504 15.008-1.792 43.328-5.984 74.672 20.48-4.192 11.584 42.752 10.576 57.808-0.896 15.584-6.576 39.968-23.312 35.136-8.368 64.112-35.2 84.4-35.2 84.4l0.64 67.792s16.96 9.648 88.544 39.216" fill="#666666" p-id="3770"></path></svg>