<?xml version="1.0" standalone="no"?><!DOCTYPE svg PUBLIC "-//W3C//DTD SVG 1.1//EN" "http://www.w3.org/Graphics/SVG/1.1/DTD/svg11.dtd"><svg t="1605780278480" class="icon" viewBox="0 0 1024 1024" version="1.1" xmlns="http://www.w3.org/2000/svg" p-id="42409" xmlns:xlink="http://www.w3.org/1999/xlink" width="32" height="32"><defs><style type="text/css"></style></defs><path d="M552.448 650.24l1.024 26.112-15.36 25.6 21.504 141.824 88.576-189.952 134.656-4.608c69.632 66.048 114.176 220.672 103.424 322.048H135.68c2.048-88.576 18.432-240.64 106.496-317.44l121.856 1.024 114.176 187.904 21.504-140.8-15.36-25.6 1.024-26.112c29.184-1.536 37.888-1.536 67.072 0z" fill="#33CCCC" p-id="42410"></path><path d="M718.848 313.856c-0.512 1.536 1.024 3.072 2.56 3.072 4.608 0 6.656-1.024 9.728 0l4.608 2.048c1.536 1.024 3.584 2.56 3.584 4.608l2.56 8.192c4.096 32.256 1.536 58.88-7.68 75.776-6.656 16.384-21.504 19.456-34.816 26.624l-1.536 1.536c-9.216 32.768-14.848 68.096-30.208 93.696-17.92 29.696-40.96 52.736-74.24 65.024-14.848 5.632-52.736 8.192-89.088 7.168-35.328-0.512-70.656-4.096-84.48-10.752-30.208-13.824-51.2-37.376-67.584-66.048-13.824-24.576-18.432-57.856-26.624-88.064 0-0.512-0.512-1.536-1.536-1.536-13.824-6.656-31.232-6.656-37.888-23.04-7.68-18.432-9.216-51.2-8.704-80.384l0.512-5.12c0-2.56 2.048-5.12 5.12-5.632l3.584-0.512c3.072-0.512 5.12-3.584 5.12-7.168 0-0.512 0-0.512 0.512-1.024-9.216-114.176-5.632-156.16 36.352-204.288 0 0 0-0.512 0.512-0.512 82.432-67.584 271.36-65.024 355.328-4.096l0.512 0.512c56.32 53.76 50.688 118.272 33.792 209.92z" fill="#FFDFB0" p-id="42411"></path><path d="M333.312 217.088L291.84 321.024s-17.92-34.304-6.656-120.32C300.544 80.896 394.752 55.808 464.896 53.248c55.296-2.56 166.4-5.632 233.984 71.68C765.952 200.704 717.824 320 717.824 320s-23.552-48.64-64-75.264c-40.448-27.136-114.176 6.656-150.016 6.656-26.112 0-105.984-32.768-146.432-50.176-11.264-5.12-24.064 3.072-24.064 15.872z" fill="#533D3E" p-id="42412"></path></svg>