<?xml version="1.0" standalone="no"?><!DOCTYPE svg PUBLIC "-//W3C//DTD SVG 1.1//EN" "http://www.w3.org/Graphics/SVG/1.1/DTD/svg11.dtd"><svg t="1617093918516" class="icon" viewBox="0 0 1024 1024" version="1.1" xmlns="http://www.w3.org/2000/svg" p-id="21682" xmlns:xlink="http://www.w3.org/1999/xlink" width="32" height="32"><defs><style type="text/css"></style></defs><path d="M64.9 791.3c0-37.7-8.6-186.7 115.7-304.9 83.6-79.5 208.7-93.3 358.4-99.6V188.6c0-19.1 16.3-34.5 36.5-34.5 9.1 0 17.8 3.2 24.5 9l347.4 298c14.9 12.8 16.1 34.6 2.5 48.7-0.7 0.7-1.5 1.4-2.3 2.1L600.3 816.2c-14.8 13-37.9 12.1-51.6-1.9-6.3-6.4-9.7-14.8-9.7-23.5v-197c-95 2.5-162.7 8.2-224.2 26.7-88.6 26.6-157 102.2-205.3 226.8-5.3 13.6-18.9 22.6-34.3 22.6H64.7c0-22.7 0.2-58.6 0.2-78.6z" p-id="21683"></path></svg>